<svg width="16" height="16" viewBox="0 0 16 16" fill="none" xmlns="http://www.w3.org/2000/svg">
<g clip-path="url(#clip0_1_3926)">
<path d="M15.03 8.16112C15.03 7.64146 14.9833 7.14179 14.8967 6.66211H7.99463V9.50023H11.9387C11.7655 10.413 11.2458 11.1858 10.4663 11.7054V13.5509H12.8447C14.2305 12.2717 15.03 10.393 15.03 8.16112Z" fill="#4285F4"/>
<path d="M7.99472 15.323C9.97341 15.323 11.6323 14.6701 12.8448 13.5508L10.4664 11.7054C9.81352 12.1451 8.98074 12.4116 7.99472 12.4116C6.08932 12.4116 4.47039 11.1257 3.89078 9.39355H1.45239V11.2856C2.65826 13.6774 5.12995 15.323 7.99472 15.323Z" fill="#34A853"/>
<path d="M3.89079 9.38735C3.74422 8.94764 3.65761 8.48128 3.65761 7.99494C3.65761 7.50859 3.74422 7.04224 3.89079 6.60253V4.71045H1.45241C0.952737 5.69646 0.66626 6.80906 0.66626 7.99494C0.66626 9.18082 0.952737 10.2934 1.45241 11.2794L3.35115 9.80041L3.89079 9.38735Z" fill="#FBBC05"/>
<path d="M7.99472 3.58408C9.07401 3.58408 10.0334 3.95717 10.7995 4.67669L12.8981 2.57808C11.6256 1.3922 9.97341 0.666016 7.99472 0.666016C5.12995 0.666016 2.65826 2.31159 1.45239 4.71L3.89078 6.60208C4.47039 4.8699 6.08932 3.58408 7.99472 3.58408Z" fill="#EA4335"/>
</g>
<defs>
<clipPath id="clip0_1_3926">
<rect width="15.9894" height="15.9894" fill="white"/>
</clipPath>
</defs>
</svg>
