<svg width="20" height="20" viewBox="0 0 20 20" fill="none" xmlns="http://www.w3.org/2000/svg">
<path d="M15.8268 9.16309H4.165C3.2449 9.16309 2.49902 9.90897 2.49902 10.8291V16.66C2.49902 17.5801 3.2449 18.3259 4.165 18.3259H15.8268C16.7469 18.3259 17.4928 17.5801 17.4928 16.66V10.8291C17.4928 9.90897 16.7469 9.16309 15.8268 9.16309Z" stroke="#5F6368" stroke-width="1.66597" stroke-linecap="round" stroke-linejoin="round"/>
<path d="M5.83081 9.16289V5.83095C5.83081 4.72634 6.26961 3.66697 7.05069 2.8859C7.83177 2.10482 8.89113 1.66602 9.99574 1.66602C11.1004 1.66602 12.1597 2.10482 12.9408 2.8859C13.7219 3.66697 14.1607 4.72634 14.1607 5.83095V9.16289" stroke="#5F6368" stroke-width="1.66597" stroke-linecap="round" stroke-linejoin="round"/>
</svg>
